<svg id="Capa_1" enable-background="new 0 0 490 490" height="512" viewBox="0 0 490 490" width="512" xmlns="http://www.w3.org/2000/svg"><g><path d="m490 245c0 135.31-109.69 245-245 245-48 0-92.77-13.8-130.57-37.66-8.49-5.36-16.64-11.22-24.38-17.56-12.75-10.41-24.42-22.09-34.82-34.83-6.35-7.74-12.22-15.88-17.57-24.38-23.86-37.8-37.66-82.57-37.66-130.57 0-135.31 109.69-245 245-245s245 109.69 245 245z" fill="#69af53"/><g><path d="m275.83 238.93 27.63-29.19-23.2-23.19-29.18 27.63-143.58 135.96c-12.36 11.67-31.76 11.39-43.78-.63l-26.06 26.06c5.35 8.5 11.22 16.64 17.57 24.38 9.74-7.37 23.67-6.62 32.56 2.27 8.88 8.88 9.64 22.82 2.26 32.56 7.74 6.34 15.89 12.2 24.38 17.56l26.06-26.06c-6.01-6.02-9.08-13.87-9.2-21.77-.11-7.89 2.74-15.82 8.57-22.01z" fill="#e4e4e4"/><path d="m275.829 238.928-24.751-24.752 29.183-27.628 23.196 23.196z" fill="#b0b0b0"/><path d="m489.997 145.314-158.444 158.444-32.566-32.566c16.121-16.121 16.113-42.254 0-58.367l-21.806-21.806c-7.015-7.015-15.924-10.971-25.068-11.885-1.374-.136-2.741-.204-4.115-.204-10.556 0-21.119 4.024-29.184 12.089l-32.574-32.574 158.444-158.444z" fill="#e4e4e4"/><circle cx="322.126" cy="167.874" fill="#3b494d" r="21.623"/><path d="m387.964 43.282-135.852 135.852c-1.374-.136-2.741-.204-4.115-.204-10.556 0-21.119 4.024-29.184 12.089l-32.574-32.574 158.445-158.444z" fill="#b0b0b0"/><g fill="#3b494d"><path d="m384.248-6.613h19.221v205.51h-19.221z" transform="matrix(.707 -.707 .707 .707 47.376 306.659)"/><path d="m359.462 18.173h19.221v205.51h-19.221z" transform="matrix(.707 -.707 .707 .707 22.59 296.393)"/></g></g></g></svg>